{
	"asset":{
		"generator":"Khronos glTF Blender I/O v4.3.47",
		"version":"2.0"
	},
	"scene":0,
	"scenes":[
		{
			"name":"Scene",
			"nodes":[
				49
			]
		}
	],
	"nodes":[
		{
			"mesh":0,
			"name":"CameraVirticalMovement",
			"rotation":[
				-0.7064638733863831,
				0.030145231634378433,
				0.03014521673321724,
				0.7064639329910278
			],
			"scale":[
				1.0000001192092896,
				0.9999998807907104,
				1
			],
			"translation":[
				0.01219977717846632,
				-0.0001677797408774495,
				0.016703736037015915
			]
		},
		{
			"children":[
				0
			],
			"name":"camerapivotupdownBone",
			"rotation":[
				-0.10528016835451126,
				8.086176990218519e-07,
				-0.36836564540863037,
				0.9237006306648254
			],
			"scale":[
				1,
				1.0000001192092896,
				0.9999998807907104
			],
			"translation":[
				-9.5367431640625e-06,
				12.523771286010742,
				2.384185791015625e-07
			]
		},
		{
			"children":[
				1
			],
			"name":"permcamerapivotlocation",
			"rotation":[
				0.07698465138673782,
				-0.04084046557545662,
				0.3683215081691742,
				0.925605058670044
			],
			"scale":[
				1.0000001192092896,
				1,
				1
			],
			"translation":[
				-2.384185791015625e-07,
				8.299930572509766,
				-3.337860107421875e-06
			]
		},
		{
			"mesh":1,
			"name":"CameraHorizontalMovement",
			"rotation":[
				-0.7148682475090027,
				-5.536853642240658e-09,
				-0.007804823108017445,
				0.6992156505584717
			],
			"scale":[
				1.0000001192092896,
				0.9999998807907104,
				1
			],
			"translation":[
				0.005209684371948242,
				-0.0022488832473754883,
				0.0053255558013916016
			]
		},
		{
			"children":[
				2,
				3
			],
			"name":"cameraleftrightrotation",
			"rotation":[
				-0.10596305876970291,
				0.020190559327602386,
				-0.12716133892536163,
				0.9859991073608398
			],
			"scale":[
				0.9999999403953552,
				0.9999998807907104,
				0.9999999403953552
			],
			"translation":[
				-1.9073486328125e-06,
				9.265426635742188,
				2.1979212760925293e-06
			]
		},
		{
			"children":[
				4
			],
			"name":"permcameraside2siderotationlocation",
			"rotation":[
				0.11767952889204025,
				-0.015569951385259628,
				0.13178303837776184,
				0.9841455221176147
			],
			"scale":[
				0.9999999403953552,
				0.9999999403953552,
				1
			],
			"translation":[
				-4.158757292316295e-06,
				14.668973922729492,
				4.115182946407003e-06
			]
		},
		{
			"children":[
				5
			],
			"name":"permcamerarpilocationBone",
			"rotation":[
				-0.7071067690849304,
				-1.8990319858763803e-16,
				0.7071067690849304,
				2.7067403697632157e-16
			],
			"scale":[
				1,
				0.9999998807907104,
				1
			],
			"translation":[
				2.580174446105957,
				-32.09428787231445,
				149.7010955810547
			]
		},
		{
			"mesh":2,
			"name":"GroundBase",
			"rotation":[
				0.500000536441803,
				0.499999463558197,
				-0.499999463558197,
				0.4999995231628418
			],
			"scale":[
				1,
				0.999987006187439,
				0.9999998807907104
			],
			"translation":[
				0.016220206394791603,
				-11.194181442260742,
				-0.009861514903604984
			]
		},
		{
			"mesh":3,
			"name":"GroundBase.001",
			"rotation":[
				0.500000536441803,
				0.499999463558197,
				-0.499999463558197,
				0.4999995231628418
			],
			"scale":[
				1,
				0.999987006187439,
				0.9999998807907104
			],
			"translation":[
				-0.16108721494674683,
				-44.14198303222656,
				2.276068687438965
			]
		},
		{
			"mesh":4,
			"name":"GroundBase.002",
			"rotation":[
				0.500000536441803,
				0.499999463558197,
				-0.499999463558197,
				0.4999995231628418
			],
			"scale":[
				1,
				0.999987006187439,
				0.9999998807907104
			],
			"translation":[
				111.2998046875,
				-4.1536865234375,
				2.2788608074188232
			]
		},
		{
			"mesh":5,
			"name":"GroundBase.003",
			"rotation":[
				0.500000536441803,
				0.499999463558197,
				-0.499999463558197,
				0.4999995231628418
			],
			"scale":[
				1,
				0.999987006187439,
				0.9999998807907104
			],
			"translation":[
				2.0014092922210693,
				1.1326665878295898,
				141.56045532226562
			]
		},
		{
			"mesh":6,
			"name":"GroundBase.004",
			"rotation":[
				0.500000536441803,
				0.499999463558197,
				-0.499999463558197,
				0.4999995231628418
			],
			"scale":[
				1,
				0.999987006187439,
				0.9999998807907104
			],
			"translation":[
				8.201115608215332,
				-18.457733154296875,
				146.58349609375
			]
		},
		{
			"mesh":7,
			"name":"GroundBase.005",
			"rotation":[
				0.500000536441803,
				0.499999463558197,
				-0.499999463558197,
				0.4999995231628418
			],
			"scale":[
				1,
				0.999987006187439,
				0.9999998807907104
			],
			"translation":[
				174.72816467285156,
				-0.8129312992095947,
				17.69759750366211
			]
		},
		{
			"mesh":8,
			"name":"GroundBase.006",
			"rotation":[
				0.500000536441803,
				0.499999463558197,
				-0.499999463558197,
				0.4999995231628418
			],
			"scale":[
				1,
				0.999987006187439,
				0.9999998807907104
			],
			"translation":[
				166.32814025878906,
				-18.903850555419922,
				87.36695861816406
			]
		},
		{
			"mesh":9,
			"name":"GroundBase.007",
			"rotation":[
				0.500000536441803,
				0.499999463558197,
				-0.499999463558197,
				0.4999995231628418
			],
			"scale":[
				1,
				0.999987006187439,
				0.9999998807907104
			],
			"translation":[
				172.11009216308594,
				-39.80275344848633,
				17.170604705810547
			]
		},
		{
			"mesh":10,
			"name":"GroundBase.008",
			"rotation":[
				0.500000536441803,
				0.499999463558197,
				-0.499999463558197,
				0.4999995231628418
			],
			"scale":[
				1,
				0.999987006187439,
				0.9999998807907104
			],
			"translation":[
				2.580174446105957,
				-23.672016143798828,
				149.7010955810547
			]
		},
		{
			"mesh":11,
			"name":"GroundBase.009",
			"rotation":[
				0.500000536441803,
				0.499999463558197,
				-0.499999463558197,
				0.4999995231628418
			],
			"scale":[
				1,
				0.999987006187439,
				0.9999998807907104
			],
			"translation":[
				2.579380989074707,
				-22.913236618041992,
				149.6333770751953
			]
		},
		{
			"mesh":12,
			"name":"GroundBase.010",
			"rotation":[
				0.500000536441803,
				0.499999463558197,
				-0.499999463558197,
				0.4999995231628418
			],
			"scale":[
				1,
				0.999987006187439,
				0.9999998807907104
			],
			"translation":[
				-4.8900861740112305,
				-24.74365997314453,
				149.3441162109375
			]
		},
		{
			"mesh":13,
			"name":"GroundBase.011",
			"rotation":[
				0.500000536441803,
				0.499999463558197,
				-0.499999463558197,
				0.4999995231628418
			],
			"scale":[
				1,
				0.999987006187439,
				0.9999998807907104
			],
			"translation":[
				10.051823616027832,
				-24.743680953979492,
				149.3442840576172
			]
		},
		{
			"children":[
				6,
				7,
				8,
				9,
				10,
				11,
				12,
				13,
				14,
				15,
				16,
				17,
				18
			],
			"name":"Bone",
			"rotation":[
				-0.7050712704658508,
				0.0536147765815258,
				0.7050713896751404,
				0.053614068776369095
			],
			"scale":[
				1.0000131130218506,
				1.0000001192092896,
				1
			],
			"translation":[
				-0.5710488557815552,
				-3.769610643386841,
				-0.002166686113923788
			]
		},
		{
			"mesh":14,
			"name":"RightHandGripper",
			"rotation":[
				-0.7318633794784546,
				-0.005154695361852646,
				0.004813692532479763,
				0.6814149022102356
			],
			"scale":[
				1.0000001192092896,
				1,
				1
			],
			"translation":[
				2.176382541656494,
				16.302141189575195,
				8.387493133544922
			]
		},
		{
			"mesh":15,
			"name":"RightHandGripper.001",
			"rotation":[
				-0.7318633794784546,
				-0.005154695361852646,
				0.004813692532479763,
				0.6814149022102356
			],
			"scale":[
				1.0000001192092896,
				1,
				1
			],
			"translation":[
				-0.004147663712501526,
				52.907291412353516,
				-0.016089940443634987
			]
		},
		{
			"children":[
				20,
				21
			],
			"name":"Rightgripbone",
			"rotation":[
				0.026678623631596565,
				-0.0008951951167546213,
				-0.04721635952591896,
				0.9985279440879822
			],
			"scale":[
				0.9999998807907104,
				1,
				1
			],
			"translation":[
				8.940696716308594e-07,
				66.58349609375,
				-1.644577605475206e-05
			]
		},
		{
			"mesh":16,
			"name":"LeftHandGripper",
			"rotation":[
				-0.679855465888977,
				-0.004428207408636808,
				0.00531763955950737,
				0.7333135008811951
			],
			"scale":[
				1.0000003576278687,
				1.0000003576278687,
				1.0000001192092896
			],
			"translation":[
				-1.3429527282714844,
				25.68240737915039,
				-5.84760046005249
			]
		},
		{
			"mesh":17,
			"name":"LeftHandGripper.001",
			"rotation":[
				-0.679855465888977,
				-0.004428207408636808,
				0.00531763955950737,
				0.7333135008811951
			],
			"scale":[
				1.0000003576278687,
				1.0000003576278687,
				1.0000001192092896
			],
			"translation":[
				0.010705292224884033,
				52.92551803588867,
				-0.003114100079983473
			]
		},
		{
			"children":[
				23,
				24
			],
			"name":"leftgripbone",
			"rotation":[
				-0.04676632955670357,
				0.001189403235912323,
				-0.047021690756082535,
				0.9977977871894836
			],
			"scale":[
				0.9999999403953552,
				0.9999998807907104,
				1
			],
			"translation":[
				8.940696716308594e-07,
				66.58349609375,
				-1.644577605475206e-05
			]
		},
		{
			"mesh":18,
			"name":"RotatorWrist",
			"rotation":[
				-0.7128545641899109,
				0.02867039665579796,
				-0.02815999649465084,
				0.7001596093177795
			],
			"scale":[
				0.9999998211860657,
				1.0000001192092896,
				0.9999999403953552
			],
			"translation":[
				1.0194685459136963,
				17.81072425842285,
				0.8198887705802917
			]
		},
		{
			"mesh":19,
			"name":"RotatorWrist.002",
			"rotation":[
				-0.7128545641899109,
				0.02867039665579796,
				-0.02815999649465084,
				0.7001596093177795
			],
			"scale":[
				0.9999998211860657,
				1.0000001192092896,
				0.9999999403953552
			],
			"translation":[
				10.354000091552734,
				60.15814971923828,
				-0.6086044907569885
			]
		},
		{
			"mesh":20,
			"name":"RotatorWrist.003",
			"rotation":[
				-0.7128545641899109,
				0.02867039665579796,
				-0.02815999649465084,
				0.7001596093177795
			],
			"scale":[
				0.9999998211860657,
				1.0000001192092896,
				0.9999999403953552
			],
			"translation":[
				-4.493730545043945,
				58.93791580200195,
				-0.5653699636459351
			]
		},
		{
			"mesh":21,
			"name":"RWgripperrotatorjoint",
			"rotation":[
				-0.7128545641899109,
				0.02867039665579796,
				-0.02815999649465084,
				0.7001596093177795
			],
			"scale":[
				0.9999998211860657,
				1.0000001192092896,
				0.9999999403953552
			],
			"translation":[
				2.231146812438965,
				66.38200378417969,
				-0.16601665318012238
			]
		},
		{
			"children":[
				22,
				25,
				26,
				27,
				28,
				29
			],
			"name":"wristBone",
			"rotation":[
				0.008976730518043041,
				-0.00036090926732867956,
				0.04018515348434448,
				0.999151885509491
			],
			"scale":[
				0.9999999403953552,
				1,
				1
			],
			"translation":[
				-5.5734297177423286e-08,
				57.47972106933594,
				2.7772784960689023e-08
			]
		},
		{
			"children":[
				30
			],
			"name":"upperarmupperBone",
			"rotation":[
				-2.697980944557643e-12,
				2.3762158463114247e-08,
				0.002816935535520315,
				0.9999960660934448
			],
			"scale":[
				0.9999999403953552,
				0.9999999403953552,
				1
			],
			"translation":[
				3.0600858735851943e-08,
				57.4805908203125,
				1.526171899968176e-08
			]
		},
		{
			"mesh":22,
			"name":"LAupperrotatorjoint",
			"rotation":[
				-0.707103967666626,
				-0.0019918663892894983,
				0.001991891534999013,
				0.7071040272712708
			],
			"scale":[
				0.9999999403953552,
				1.000000238418579,
				0.9999999403953552
			],
			"translation":[
				0.036269158124923706,
				-0.009982679970562458,
				-4.948394775390625
			]
		},
		{
			"mesh":23,
			"name":"MAupperrotatorjoint",
			"rotation":[
				-0.707103967666626,
				-0.001991867320612073,
				0.001991891534999013,
				0.7071040272712708
			],
			"scale":[
				0.9999998807907104,
				1.000000238418579,
				0.9999998211860657
			],
			"translation":[
				-0.3697306215763092,
				115.02452087402344,
				-3.6864013671875
			]
		},
		{
			"mesh":24,
			"name":"MiddleArm",
			"rotation":[
				-0.7071039080619812,
				-0.001991866622120142,
				0.0019918910693377256,
				0.7071040272712708
			],
			"scale":[
				0.9999998807907104,
				1.000000238418579,
				0.9999998807907104
			],
			"translation":[
				-0.423542320728302,
				57.23463439941406,
				-0.4513244330883026
			]
		},
		{
			"mesh":25,
			"name":"MiddleArm.001",
			"rotation":[
				-0.7071039080619812,
				-0.001991866622120142,
				0.0019918910693377256,
				0.7071040272712708
			],
			"scale":[
				0.9999998807907104,
				1.000000238418579,
				0.9999998807907104
			],
			"translation":[
				-0.3765731751918793,
				57.15338897705078,
				-15.994430541992188
			]
		},
		{
			"mesh":26,
			"name":"MiddleArm.002",
			"rotation":[
				-0.7071039080619812,
				-0.001991866622120142,
				0.0019918910693377256,
				0.7071040272712708
			],
			"scale":[
				0.9999998807907104,
				1.000000238418579,
				0.9999998807907104
			],
			"translation":[
				-0.3123934268951416,
				57.197322845458984,
				15.555862426757812
			]
		},
		{
			"children":[
				31,
				32,
				33,
				34,
				35,
				36
			],
			"name":"upperarmlowerBone",
			"rotation":[
				2.6943313032046223e-12,
				-2.3762190437537356e-08,
				-0.0028169366996735334,
				0.9999960064888
			],
			"scale":[
				1,
				1.0000001192092896,
				1
			],
			"translation":[
				1.8759779152333067e-07,
				59.424285888671875,
				1.9767497860812e-08
			]
		},
		{
			"children":[
				37
			],
			"name":"lowerarmupperBone",
			"rotation":[
				6.177903189019673e-10,
				9.645624032827982e-08,
				0.008611668832600117,
				0.9999629259109497
			],
			"translation":[
				-3.308377927169204e-08,
				58.04963302612305,
				1.570744461787399e-05
			]
		},
		{
			"mesh":27,
			"name":"LowerArm",
			"rotation":[
				-0.7070804834365845,
				-0.006089309696108103,
				0.006089437752962112,
				0.707080602645874
			],
			"scale":[
				0.9999998807907104,
				1.0000001192092896,
				1
			],
			"translation":[
				-0.7591067552566528,
				58.13938522338867,
				5.664185047149658
			]
		},
		{
			"mesh":28,
			"name":"LowerArm.001",
			"rotation":[
				-0.7070804834365845,
				-0.006089309696108103,
				0.006089437752962112,
				0.707080602645874
			],
			"scale":[
				0.9999998807907104,
				1.0000001192092896,
				1
			],
			"translation":[
				-0.9124035835266113,
				58.17911911010742,
				-10.196303367614746
			]
		},
		{
			"mesh":29,
			"name":"rotatorupperjoint",
			"rotation":[
				-0.7070804834365845,
				-0.006089308299124241,
				0.006089437287300825,
				0.707080602645874
			],
			"scale":[
				1,
				1.0000001192092896,
				1.0000001192092896
			],
			"translation":[
				-0.03271983563899994,
				-0.04932768642902374,
				4.722244739532471
			]
		},
		{
			"children":[
				38,
				39,
				40,
				41
			],
			"name":"lowerarmlowerBone",
			"rotation":[
				-6.177982014854422e-10,
				-9.645621190657039e-08,
				-0.008611667901277542,
				0.9999629259109497
			],
			"translation":[
				-1.4901138101208744e-08,
				122.76863861083984,
				1.5253841411322355e-05
			]
		},
		{
			"mesh":30,
			"name":"RotatorBase",
			"rotation":[
				-0.7071067094802856,
				1.922096693030115e-15,
				-8.74000694039978e-09,
				0.7071068286895752
			],
			"scale":[
				1,
				1.0000001192092896,
				1.0000001192092896
			],
			"translation":[
				-0.16472382843494415,
				54.92155456542969,
				0.2582550048828125
			]
		},
		{
			"mesh":31,
			"name":"RotatorBase.001",
			"rotation":[
				-0.7071067094802856,
				1.922096693030115e-15,
				-8.74000694039978e-09,
				0.7071068286895752
			],
			"scale":[
				1,
				1.0000001192092896,
				1.0000001192092896
			],
			"translation":[
				0.1991569995880127,
				95.69442749023438,
				21.53338623046875
			]
		},
		{
			"mesh":32,
			"name":"RotatorBase.002",
			"rotation":[
				-0.7071067094802856,
				1.922096693030115e-15,
				-8.74000694039978e-09,
				0.7071068286895752
			],
			"scale":[
				1,
				1.0000001192092896,
				1.0000001192092896
			],
			"translation":[
				0.19915048778057098,
				95.6942367553711,
				0.5365447998046875
			]
		},
		{
			"mesh":33,
			"name":"RotatorBase.003",
			"rotation":[
				-0.7071067094802856,
				1.922096693030115e-15,
				-8.74000694039978e-09,
				0.7071068286895752
			],
			"scale":[
				1,
				1.0000001192092896,
				1.0000001192092896
			],
			"translation":[
				0.19916869699954987,
				106.55425262451172,
				-20.462875366210938
			]
		},
		{
			"children":[
				42,
				43,
				44,
				45,
				46
			],
			"name":"rotatorbaseBone",
			"rotation":[
				1.9434283071717573e-09,
				-9.084882846011055e-10,
				-0.07582172751426697,
				0.9971213936805725
			],
			"scale":[
				1,
				0.9999999403953552,
				1
			],
			"translation":[
				-3.6807568903896026e-07,
				16.359859466552734,
				1.533577415102627e-05
			]
		},
		{
			"children":[
				19,
				47
			],
			"name":"baseBone",
			"rotation":[
				0.7050712704658508,
				-0.0536140538752079,
				0.053614068776369095,
				0.7050713896751404
			],
			"scale":[
				0.9999999403953552,
				0.9999999403953552,
				0.9999998807907104
			],
			"translation":[
				149.69558715820312,
				-2.5823974609375,
				-28.28166961669922
			]
		},
		{
			"children":[
				48
			],
			"name":"RpiCameraBones",
			"translation":[
				-147.4219970703125,
				-216.0540008544922,
				32.600074768066406
			]
		}
	],
	"meshes":[
		{
			"name":"robotarmremakeObject.37",
			"primitives":[
				{
					"attributes":{
						"POSITION":0,
						"NORMAL":1
					},
					"indices":2
				}
			]
		},
		{
			"name":"robotarmremakeObject.38",
			"primitives":[
				{
					"attributes":{
						"POSITION":3,
						"NORMAL":4
					},
					"indices":5
				}
			]
		},
		{
			"name":"robotarmremakeObject.10",
			"primitives":[
				{
					"attributes":{
						"POSITION":6,
						"NORMAL":7
					},
					"indices":8
				}
			]
		},
		{
			"name":"robotarmremakeObject.22",
			"primitives":[
				{
					"attributes":{
						"POSITION":9,
						"NORMAL":10
					},
					"indices":11
				}
			]
		},
		{
			"name":"robotarmremakeObject.25",
			"primitives":[
				{
					"attributes":{
						"POSITION":12,
						"NORMAL":13
					},
					"indices":14
				}
			]
		},
		{
			"name":"robotarmremakeObject.27",
			"primitives":[
				{
					"attributes":{
						"POSITION":15,
						"NORMAL":16
					},
					"indices":17
				}
			]
		},
		{
			"name":"robotarmremakeObject.28",
			"primitives":[
				{
					"attributes":{
						"POSITION":18,
						"NORMAL":19
					},
					"indices":20
				}
			]
		},
		{
			"name":"robotarmremakeObject.29",
			"primitives":[
				{
					"attributes":{
						"POSITION":21,
						"NORMAL":22
					},
					"indices":23
				}
			]
		},
		{
			"name":"robotarmremakeObject.30",
			"primitives":[
				{
					"attributes":{
						"POSITION":24,
						"NORMAL":25
					},
					"indices":26
				}
			]
		},
		{
			"name":"robotarmremakeObject.31",
			"primitives":[
				{
					"attributes":{
						"POSITION":27,
						"NORMAL":28
					},
					"indices":29
				}
			]
		},
		{
			"name":"robotarmremakeObject.33",
			"primitives":[
				{
					"attributes":{
						"POSITION":30,
						"NORMAL":31
					},
					"indices":32
				}
			]
		},
		{
			"name":"robotarmremakeObject.34",
			"primitives":[
				{
					"attributes":{
						"POSITION":33,
						"NORMAL":34
					},
					"indices":35
				}
			]
		},
		{
			"name":"robotarmremakeObject.35",
			"primitives":[
				{
					"attributes":{
						"POSITION":36,
						"NORMAL":37
					},
					"indices":38
				}
			]
		},
		{
			"name":"robotarmremakeObject.36",
			"primitives":[
				{
					"attributes":{
						"POSITION":39,
						"NORMAL":40
					},
					"indices":41
				}
			]
		},
		{
			"name":"robotarmremakeObject.19",
			"primitives":[
				{
					"attributes":{
						"POSITION":42,
						"NORMAL":43
					},
					"indices":44
				}
			]
		},
		{
			"name":"robotarmremakeObject.14",
			"primitives":[
				{
					"attributes":{
						"POSITION":45,
						"NORMAL":46
					},
					"indices":47
				}
			]
		},
		{
			"name":"robotarmremakeObject.18",
			"primitives":[
				{
					"attributes":{
						"POSITION":48,
						"NORMAL":49
					},
					"indices":50
				}
			]
		},
		{
			"name":"robotarmremakeObject.20",
			"primitives":[
				{
					"attributes":{
						"POSITION":51,
						"NORMAL":52
					},
					"indices":53
				}
			]
		},
		{
			"name":"rotatorwrist",
			"primitives":[
				{
					"attributes":{
						"POSITION":54,
						"NORMAL":55
					},
					"indices":56
				}
			]
		},
		{
			"name":"robotarmremakeObject.17",
			"primitives":[
				{
					"attributes":{
						"POSITION":57,
						"NORMAL":58
					},
					"indices":59
				}
			]
		},
		{
			"name":"robotarmremakeObject.16",
			"primitives":[
				{
					"attributes":{
						"POSITION":60,
						"NORMAL":61
					},
					"indices":62
				}
			]
		},
		{
			"name":"robotarmremakeObject.026",
			"primitives":[
				{
					"attributes":{
						"POSITION":63,
						"NORMAL":64
					},
					"indices":65
				}
			]
		},
		{
			"name":"MiddlePlanetaryGear.001",
			"primitives":[
				{
					"attributes":{
						"POSITION":66,
						"NORMAL":67
					},
					"indices":68
				}
			]
		},
		{
			"name":"UpperPlanetaryGear",
			"primitives":[
				{
					"attributes":{
						"POSITION":69,
						"NORMAL":70
					},
					"indices":68
				}
			]
		},
		{
			"name":"robotarmremakeObject.2",
			"primitives":[
				{
					"attributes":{
						"POSITION":71,
						"NORMAL":72
					},
					"indices":73
				}
			]
		},
		{
			"name":"robotarmremakeObject.3",
			"primitives":[
				{
					"attributes":{
						"POSITION":74,
						"NORMAL":75
					},
					"indices":76
				}
			]
		},
		{
			"name":"robotarmremakeObject.4",
			"primitives":[
				{
					"attributes":{
						"POSITION":77,
						"NORMAL":78
					},
					"indices":79
				}
			]
		},
		{
			"name":"robotarmremakeObject.6",
			"primitives":[
				{
					"attributes":{
						"POSITION":80,
						"NORMAL":81
					},
					"indices":82
				}
			]
		},
		{
			"name":"robotarmremakeObject.7",
			"primitives":[
				{
					"attributes":{
						"POSITION":83,
						"NORMAL":84
					},
					"indices":85
				}
			]
		},
		{
			"name":"LowerPlanetaryGear.001",
			"primitives":[
				{
					"attributes":{
						"POSITION":86,
						"NORMAL":87
					},
					"indices":68
				}
			]
		},
		{
			"name":"robotarmremakeObject.12",
			"primitives":[
				{
					"attributes":{
						"POSITION":88,
						"NORMAL":89
					},
					"indices":90
				}
			]
		},
		{
			"name":"robotarmremakeObject.13",
			"primitives":[
				{
					"attributes":{
						"POSITION":91,
						"NORMAL":92
					},
					"indices":93
				}
			]
		},
		{
			"name":"robotarmremakeObject.11",
			"primitives":[
				{
					"attributes":{
						"POSITION":94,
						"NORMAL":95
					},
					"indices":96
				}
			]
		},
		{
			"name":"robotarmremakeObject.9",
			"primitives":[
				{
					"attributes":{
						"POSITION":97,
						"NORMAL":98
					},
					"indices":99
				}
			]
		}
	],
	"skins":[
		{
			"inverseBindMatrices":100,
			"joints":[
				48,
				19,
				6,
				5,
				4,
				2,
				1,
				47,
				42,
				38,
				37,
				31,
				30,
				22,
				25
			],
			"name":"RpiCameraBones"
		}
	],
	"accessors":[
		{
			"bufferView":0,
			"componentType":5126,
			"count":17580,
			"max":[
				13.560310363769531,
				26.480140686035156,
				15.740056037902832
			],
			"min":[
				-12.363655090332031,
				-23.717857360839844,
				-16.359949111938477
			],
			"type":"VEC3"
		},
		{
			"bufferView":1,
			"componentType":5126,
			"count":17580,
			"type":"VEC3"
		},
		{
			"bufferView":2,
			"componentType":5123,
			"count":26946,
			"type":"SCALAR"
		},
		{
			"bufferView":3,
			"componentType":5126,
			"count":2981,
			"max":[
				21.69295310974121,
				28.654399871826172,
				30.875511169433594
			],
			"min":[
				-13.307046890258789,
				-33.59364700317383,
				-11.524495124816895
			],
			"type":"VEC3"
		},
		{
			"bufferView":4,
			"componentType":5126,
			"count":2981,
			"type":"VEC3"
		},
		{
			"bufferView":5,
			"componentType":5123,
			"count":5916,
			"type":"SCALAR"
		},
		{
			"bufferView":6,
			"componentType":5126,
			"count":49697,
			"max":[
				107.71105194091797,
				109.9995346069336,
				47.89183044433594
			],
			"min":[
				-112.28895568847656,
				-110.00045776367188,
				-20.006175994873047
			],
			"type":"VEC3"
		},
		{
			"bufferView":7,
			"componentType":5126,
			"count":49697,
			"type":"VEC3"
		},
		{
			"bufferView":8,
			"componentType":5123,
			"count":53664,
			"type":"SCALAR"
		},
		{
			"bufferView":9,
			"componentType":5126,
			"count":90605,
			"max":[
				41.75525665283203,
				41.87385559082031,
				14.544017791748047
			],
			"min":[
				-41.74274444580078,
				-41.62413024902344,
				-19.45398712158203
			],
			"type":"VEC3"
		},
		{
			"bufferView":10,
			"componentType":5126,
			"count":90605,
			"type":"VEC3"
		},
		{
			"bufferView":11,
			"componentType":5125,
			"count":93720,
			"type":"SCALAR"
		},
		{
			"bufferView":12,
			"componentType":5126,
			"count":1604,
			"max":[
				4.7128987312316895,
				14.173919677734375,
				12.431483268737793
			],
			"min":[
				-4.713102340698242,
				-14.100074768066406,
				-7.4845170974731445
			],
			"type":"VEC3"
		},
		{
			"bufferView":13,
			"componentType":5126,
			"count":1604,
			"type":"VEC3"
		},
		{
			"bufferView":14,
			"componentType":5123,
			"count":2418,
			"type":"SCALAR"
		},
		{
			"bufferView":15,
			"componentType":5126,
			"count":11370,
			"max":[
				43.752647399902344,
				49.54669952392578,
				20.33604621887207
			],
			"min":[
				-34.56135559082031,
				-39.45336151123047,
				-7.673949718475342
			],
			"type":"VEC3"
		},
		{
			"bufferView":16,
			"componentType":5126,
			"count":11370,
			"type":"VEC3"
		},
		{
			"bufferView":17,
			"componentType":5123,
			"count":21246,
			"type":"SCALAR"
		},
		{
			"bufferView":18,
			"componentType":5126,
			"count":10025,
			"max":[
				30.180347442626953,
				43.346923828125,
				2.744459629058838
			],
			"min":[
				-29.651653289794922,
				-45.65106201171875,
				-19.25554656982422
			],
			"type":"VEC3"
		},
		{
			"bufferView":19,
			"componentType":5126,
			"count":10025,
			"type":"VEC3"
		},
		{
			"bufferView":20,
			"componentType":5123,
			"count":18576,
			"type":"SCALAR"
		},
		{
			"bufferView":21,
			"componentType":5126,
			"count":13004,
			"max":[
				69.44275665283203,
				43.744728088378906,
				31.713804244995117
			],
			"min":[
				-68.55524444580078,
				-49.25325393676758,
				-9.610204696655273
			],
			"type":"VEC3"
		},
		{
			"bufferView":22,
			"componentType":5126,
			"count":13004,
			"type":"VEC3"
		},
		{
			"bufferView":23,
			"componentType":5123,
			"count":23226,
			"type":"SCALAR"
		},
		{
			"bufferView":24,
			"componentType":5126,
			"count":9734,
			"max":[
				35.87556838989258,
				48.389862060546875,
				22.765857696533203
			],
			"min":[
				-10.612439155578613,
				-39.210113525390625,
				-24.832151412963867
			],
			"type":"VEC3"
		},
		{
			"bufferView":25,
			"componentType":5126,
			"count":9734,
			"type":"VEC3"
		},
		{
			"bufferView":26,
			"componentType":5123,
			"count":19326,
			"type":"SCALAR"
		},
		{
			"bufferView":27,
			"componentType":5126,
			"count":10060,
			"max":[
				69.00755310058594,
				46.52188491821289,
				4.50392484664917
			],
			"min":[
				-68.99043273925781,
				-46.47610092163086,
				-15.7440824508667
			],
			"type":"VEC3"
		},
		{
			"bufferView":28,
			"componentType":5126,
			"count":10060,
			"type":"VEC3"
		},
		{
			"bufferView":29,
			"componentType":5123,
			"count":21102,
			"type":"SCALAR"
		},
		{
			"bufferView":30,
			"componentType":5126,
			"count":25758,
			"max":[
				21.566518783569336,
				34.00002670288086,
				2.500474691390991
			],
			"min":[
				-21.431482315063477,
				-34.000003814697266,
				-2.4995310306549072
			],
			"type":"VEC3"
		},
		{
			"bufferView":31,
			"componentType":5126,
			"count":25758,
			"type":"VEC3"
		},
		{
			"bufferView":32,
			"componentType":5123,
			"count":29496,
			"type":"SCALAR"
		},
		{
			"bufferView":33,
			"componentType":5126,
			"count":12198,
			"max":[
				16.048870086669922,
				4.0007710456848145,
				2.4592514038085938
			],
			"min":[
				-16.049137115478516,
				-3.9992592334747314,
				-1.7407493591308594
			],
			"type":"VEC3"
		},
		{
			"bufferView":34,
			"componentType":5126,
			"count":12198,
			"type":"VEC3"
		},
		{
			"bufferView":35,
			"componentType":5123,
			"count":16578,
			"type":"SCALAR"
		},
		{
			"bufferView":36,
			"componentType":5126,
			"count":1742,
			"max":[
				11.537660598754883,
				3.4673452377319336,
				4.126810550689697
			],
			"min":[
				-12.11634635925293,
				-5.028656959533691,
				-3.5711874961853027
			],
			"type":"VEC3"
		},
		{
			"bufferView":37,
			"componentType":5126,
			"count":1742,
			"type":"VEC3"
		},
		{
			"bufferView":38,
			"componentType":5123,
			"count":3594,
			"type":"SCALAR"
		},
		{
			"bufferView":39,
			"componentType":5126,
			"count":1741,
			"max":[
				11.537826538085938,
				5.028254985809326,
				4.126823425292969
			],
			"min":[
				-12.116180419921875,
				-3.467747211456299,
				-3.5711748600006104
			],
			"type":"VEC3"
		},
		{
			"bufferView":40,
			"componentType":5126,
			"count":1741,
			"type":"VEC3"
		},
		{
			"bufferView":41,
			"componentType":5123,
			"count":3600,
			"type":"SCALAR"
		},
		{
			"bufferView":42,
			"componentType":5126,
			"count":6486,
			"max":[
				3.490856647491455,
				27.19365119934082,
				35.97050094604492
			],
			"min":[
				-6.50719690322876,
				-24.85035514831543,
				-32.96748733520508
			],
			"type":"VEC3"
		},
		{
			"bufferView":43,
			"componentType":5126,
			"count":6486,
			"type":"VEC3"
		},
		{
			"bufferView":44,
			"componentType":5123,
			"count":10746,
			"type":"SCALAR"
		},
		{
			"bufferView":45,
			"componentType":5126,
			"count":1233,
			"max":[
				4.998994827270508,
				3.7883763313293457,
				24.7576847076416
			],
			"min":[
				-4.998994827270508,
				-7.809630870819092,
				-21.678319931030273
			],
			"type":"VEC3"
		},
		{
			"bufferView":46,
			"componentType":5126,
			"count":1233,
			"type":"VEC3"
		},
		{
			"bufferView":47,
			"componentType":5123,
			"count":1980,
			"type":"SCALAR"
		},
		{
			"bufferView":48,
			"componentType":5126,
			"count":4282,
			"max":[
				6.9028801918029785,
				14.389204025268555,
				26.458553314208984
			],
			"min":[
				-3.095137596130371,
				-16.810808181762695,
				-21.481449127197266
			],
			"type":"VEC3"
		},
		{
			"bufferView":49,
			"componentType":5126,
			"count":4282,
			"type":"VEC3"
		},
		{
			"bufferView":50,
			"componentType":5123,
			"count":6894,
			"type":"SCALAR"
		},
		{
			"bufferView":51,
			"componentType":5126,
			"count":1237,
			"max":[
				4.998993396759033,
				7.809131145477295,
				24.7574462890625
			],
			"min":[
				-4.998996257781982,
				-3.7888760566711426,
				-21.678558349609375
			],
			"type":"VEC3"
		},
		{
			"bufferView":52,
			"componentType":5126,
			"count":1237,
			"type":"VEC3"
		},
		{
			"bufferView":53,
			"componentType":5123,
			"count":1980,
			"type":"SCALAR"
		},
		{
			"bufferView":54,
			"componentType":5126,
			"count":340846,
			"max":[
				21.968698501586914,
				16.733686447143555,
				22.79642105102539
			],
			"min":[
				-21.967302322387695,
				-19.264299392700195,
				-39.97152328491211
			],
			"type":"VEC3"
		},
		{
			"bufferView":55,
			"componentType":5126,
			"count":340846,
			"type":"VEC3"
		},
		{
			"bufferView":56,
			"componentType":5125,
			"count":366522,
			"type":"SCALAR"
		},
		{
			"bufferView":57,
			"componentType":5126,
			"count":45027,
			"max":[
				9.757810592651367,
				19.858718872070312,
				33.49586486816406
			],
			"min":[
				-4.930213451385498,
				-19.857284545898438,
				-29.404129028320312
			],
			"type":"VEC3"
		},
		{
			"bufferView":58,
			"componentType":5126,
			"count":45027,
			"type":"VEC3"
		},
		{
			"bufferView":59,
			"componentType":5123,
			"count":49440,
			"type":"SCALAR"
		},
		{
			"bufferView":60,
			"componentType":5126,
			"count":21606,
			"max":[
				18.620990753173828,
				19.900022506713867,
				35.939327239990234
			],
			"min":[
				-6.376997947692871,
				-19.897981643676758,
				-26.9586238861084
			],
			"type":"VEC3"
		},
		{
			"bufferView":61,
			"componentType":5126,
			"count":21606,
			"type":"VEC3"
		},
		{
			"bufferView":62,
			"componentType":5123,
			"count":26598,
			"type":"SCALAR"
		},
		{
			"bufferView":63,
			"componentType":5126,
			"count":24309,
			"max":[
				3.6312334537506104,
				10.999101638793945,
				10.999155044555664
			],
			"min":[
				-8.368767738342285,
				-10.998899459838867,
				-10.998861312866211
			],
			"type":"VEC3"
		},
		{
			"bufferView":64,
			"componentType":5126,
			"count":24309,
			"type":"VEC3"
		},
		{
			"bufferView":65,
			"componentType":5123,
			"count":35544,
			"type":"SCALAR"
		},
		{
			"bufferView":66,
			"componentType":5126,
			"count":192,
			"max":[
				19.00480079650879,
				21.810943603515625,
				18.751739501953125
			],
			"min":[
				-19.00480079650879,
				-21.810943603515625,
				-18.751754760742188
			],
			"type":"VEC3"
		},
		{
			"bufferView":67,
			"componentType":5126,
			"count":192,
			"type":"VEC3"
		},
		{
			"bufferView":68,
			"componentType":5123,
			"count":372,
			"type":"SCALAR"
		},
		{
			"bufferView":69,
			"componentType":5126,
			"count":192,
			"max":[
				19.004798889160156,
				21.810943603515625,
				18.751739501953125
			],
			"min":[
				-19.004802703857422,
				-21.810943603515625,
				-18.751739501953125
			],
			"type":"VEC3"
		},
		{
			"bufferView":70,
			"componentType":5126,
			"count":192,
			"type":"VEC3"
		},
		{
			"bufferView":71,
			"componentType":5126,
			"count":73304,
			"max":[
				21.960826873779297,
				8.51335334777832,
				79.4590072631836
			],
			"min":[
				-21.951175689697266,
				-5.484632968902588,
				-79.45499420166016
			],
			"type":"VEC3"
		},
		{
			"bufferView":72,
			"componentType":5126,
			"count":73304,
			"type":"VEC3"
		},
		{
			"bufferView":73,
			"componentType":5125,
			"count":83850,
			"type":"SCALAR"
		},
		{
			"bufferView":74,
			"componentType":5126,
			"count":71534,
			"max":[
				21.968719482421875,
				9.955586433410645,
				79.46438598632812
			],
			"min":[
				-21.9672794342041,
				-11.042414665222168,
				-79.45559692382812
			],
			"type":"VEC3"
		},
		{
			"bufferView":75,
			"componentType":5126,
			"count":71534,
			"type":"VEC3"
		},
		{
			"bufferView":76,
			"componentType":5125,
			"count":81102,
			"type":"SCALAR"
		},
		{
			"bufferView":77,
			"componentType":5126,
			"count":45617,
			"max":[
				19.364032745361328,
				14.573497772216797,
				76.49710083007812
			],
			"min":[
				-19.363964080810547,
				-8.924518585205078,
				-76.50090026855469
			],
			"type":"VEC3"
		},
		{
			"bufferView":78,
			"componentType":5126,
			"count":45617,
			"type":"VEC3"
		},
		{
			"bufferView":79,
			"componentType":5123,
			"count":50196,
			"type":"SCALAR"
		},
		{
			"bufferView":80,
			"componentType":5126,
			"count":102640,
			"max":[
				21.968629837036133,
				14.54011344909668,
				80.45809173583984
			],
			"min":[
				-21.967365264892578,
				-10.459901809692383,
				-80.45989227294922
			],
			"type":"VEC3"
		},
		{
			"bufferView":81,
			"componentType":5126,
			"count":102640,
			"type":"VEC3"
		},
		{
			"bufferView":82,
			"componentType":5125,
			"count":113412,
			"type":"SCALAR"
		},
		{
			"bufferView":83,
			"componentType":5126,
			"count":73681,
			"max":[
				21.97542381286621,
				5.679568290710449,
				80.45699310302734
			],
			"min":[
				-21.9605770111084,
				-5.318356513977051,
				-80.46302032470703
			],
			"type":"VEC3"
		},
		{
			"bufferView":84,
			"componentType":5126,
			"count":73681,
			"type":"VEC3"
		},
		{
			"bufferView":85,
			"componentType":5125,
			"count":82728,
			"type":"SCALAR"
		},
		{
			"bufferView":86,
			"componentType":5126,
			"count":192,
			"max":[
				19.00480079650879,
				21.810943603515625,
				18.751754760742188
			],
			"min":[
				-19.00480079650879,
				-21.810943603515625,
				-18.751754760742188
			],
			"type":"VEC3"
		},
		{
			"bufferView":87,
			"componentType":5126,
			"count":192,
			"type":"VEC3"
		},
		{
			"bufferView":88,
			"componentType":5126,
			"count":217218,
			"max":[
				35.36542892456055,
				35.221458435058594,
				49.573368072509766
			],
			"min":[
				-34.63457107543945,
				-34.77454376220703,
				-38.46662902832031
			],
			"type":"VEC3"
		},
		{
			"bufferView":89,
			"componentType":5126,
			"count":217218,
			"type":"VEC3"
		},
		{
			"bufferView":90,
			"componentType":5125,
			"count":267060,
			"type":"SCALAR"
		},
		{
			"bufferView":91,
			"componentType":5126,
			"count":138881,
			"max":[
				21.96864891052246,
				5.39223051071167,
				48.74272155761719
			],
			"min":[
				-21.96735191345215,
				-8.6057710647583,
				-23.473268508911133
			],
			"type":"VEC3"
		},
		{
			"bufferView":92,
			"componentType":5126,
			"count":138881,
			"type":"VEC3"
		},
		{
			"bufferView":93,
			"componentType":5125,
			"count":158814,
			"type":"SCALAR"
		},
		{
			"bufferView":94,
			"componentType":5126,
			"count":138828,
			"max":[
				21.968656539916992,
				5.392239093780518,
				48.74290466308594
			],
			"min":[
				-21.967344284057617,
				-8.605792999267578,
				-23.473093032836914
			],
			"type":"VEC3"
		},
		{
			"bufferView":95,
			"componentType":5126,
			"count":138828,
			"type":"VEC3"
		},
		{
			"bufferView":96,
			"componentType":5125,
			"count":158814,
			"type":"SCALAR"
		},
		{
			"bufferView":97,
			"componentType":5126,
			"count":7417,
			"max":[
				18.998966217041016,
				4.241053581237793,
				34.93157196044922
			],
			"min":[
				-18.999034881591797,
				-8.25902271270752,
				-34.06642150878906
			],
			"type":"VEC3"
		},
		{
			"bufferView":98,
			"componentType":5126,
			"count":7417,
			"type":"VEC3"
		},
		{
			"bufferView":99,
			"componentType":5123,
			"count":12942,
			"type":"SCALAR"
		},
		{
			"bufferView":100,
			"componentType":5126,
			"count":15,
			"type":"MAT4"
		}
	],
	"bufferViews":[
		{
			"buffer":0,
			"byteLength":210960,
			"byteOffset":0,
			"target":34962
		},
		{
			"buffer":0,
			"byteLength":210960,
			"byteOffset":210960,
			"target":34962
		},
		{
			"buffer":0,
			"byteLength":53892,
			"byteOffset":421920,
			"target":34963
		},
		{
			"buffer":0,
			"byteLength":35772,
			"byteOffset":475812,
			"target":34962
		},
		{
			"buffer":0,
			"byteLength":35772,
			"byteOffset":511584,
			"target":34962
		},
		{
			"buffer":0,
			"byteLength":11832,
			"byteOffset":547356,
			"target":34963
		},
		{
			"buffer":0,
			"byteLength":596364,
			"byteOffset":559188,
			"target":34962
		},
		{
			"buffer":0,
			"byteLength":596364,
			"byteOffset":1155552,
			"target":34962
		},
		{
			"buffer":0,
			"byteLength":107328,
			"byteOffset":1751916,
			"target":34963
		},
		{
			"buffer":0,
			"byteLength":1087260,
			"byteOffset":1859244,
			"target":34962
		},
		{
			"buffer":0,
			"byteLength":1087260,
			"byteOffset":2946504,
			"target":34962
		},
		{
			"buffer":0,
			"byteLength":374880,
			"byteOffset":4033764,
			"target":34963
		},
		{
			"buffer":0,
			"byteLength":19248,
			"byteOffset":4408644,
			"target":34962
		},
		{
			"buffer":0,
			"byteLength":19248,
			"byteOffset":4427892,
			"target":34962
		},
		{
			"buffer":0,
			"byteLength":4836,
			"byteOffset":4447140,
			"target":34963
		},
		{
			"buffer":0,
			"byteLength":136440,
			"byteOffset":4451976,
			"target":34962
		},
		{
			"buffer":0,
			"byteLength":136440,
			"byteOffset":4588416,
			"target":34962
		},
		{
			"buffer":0,
			"byteLength":42492,
			"byteOffset":4724856,
			"target":34963
		},
		{
			"buffer":0,
			"byteLength":120300,
			"byteOffset":4767348,
			"target":34962
		},
		{
			"buffer":0,
			"byteLength":120300,
			"byteOffset":4887648,
			"target":34962
		},
		{
			"buffer":0,
			"byteLength":37152,
			"byteOffset":5007948,
			"target":34963
		},
		{
			"buffer":0,
			"byteLength":156048,
			"byteOffset":5045100,
			"target":34962
		},
		{
			"buffer":0,
			"byteLength":156048,
			"byteOffset":5201148,
			"target":34962
		},
		{
			"buffer":0,
			"byteLength":46452,
			"byteOffset":5357196,
			"target":34963
		},
		{
			"buffer":0,
			"byteLength":116808,
			"byteOffset":5403648,
			"target":34962
		},
		{
			"buffer":0,
			"byteLength":116808,
			"byteOffset":5520456,
			"target":34962
		},
		{
			"buffer":0,
			"byteLength":38652,
			"byteOffset":5637264,
			"target":34963
		},
		{
			"buffer":0,
			"byteLength":120720,
			"byteOffset":5675916,
			"target":34962
		},
		{
			"buffer":0,
			"byteLength":120720,
			"byteOffset":5796636,
			"target":34962
		},
		{
			"buffer":0,
			"byteLength":42204,
			"byteOffset":5917356,
			"target":34963
		},
		{
			"buffer":0,
			"byteLength":309096,
			"byteOffset":5959560,
			"target":34962
		},
		{
			"buffer":0,
			"byteLength":309096,
			"byteOffset":6268656,
			"target":34962
		},
		{
			"buffer":0,
			"byteLength":58992,
			"byteOffset":6577752,
			"target":34963
		},
		{
			"buffer":0,
			"byteLength":146376,
			"byteOffset":6636744,
			"target":34962
		},
		{
			"buffer":0,
			"byteLength":146376,
			"byteOffset":6783120,
			"target":34962
		},
		{
			"buffer":0,
			"byteLength":33156,
			"byteOffset":6929496,
			"target":34963
		},
		{
			"buffer":0,
			"byteLength":20904,
			"byteOffset":6962652,
			"target":34962
		},
		{
			"buffer":0,
			"byteLength":20904,
			"byteOffset":6983556,
			"target":34962
		},
		{
			"buffer":0,
			"byteLength":7188,
			"byteOffset":7004460,
			"target":34963
		},
		{
			"buffer":0,
			"byteLength":20892,
			"byteOffset":7011648,
			"target":34962
		},
		{
			"buffer":0,
			"byteLength":20892,
			"byteOffset":7032540,
			"target":34962
		},
		{
			"buffer":0,
			"byteLength":7200,
			"byteOffset":7053432,
			"target":34963
		},
		{
			"buffer":0,
			"byteLength":77832,
			"byteOffset":7060632,
			"target":34962
		},
		{
			"buffer":0,
			"byteLength":77832,
			"byteOffset":7138464,
			"target":34962
		},
		{
			"buffer":0,
			"byteLength":21492,
			"byteOffset":7216296,
			"target":34963
		},
		{
			"buffer":0,
			"byteLength":14796,
			"byteOffset":7237788,
			"target":34962
		},
		{
			"buffer":0,
			"byteLength":14796,
			"byteOffset":7252584,
			"target":34962
		},
		{
			"buffer":0,
			"byteLength":3960,
			"byteOffset":7267380,
			"target":34963
		},
		{
			"buffer":0,
			"byteLength":51384,
			"byteOffset":7271340,
			"target":34962
		},
		{
			"buffer":0,
			"byteLength":51384,
			"byteOffset":7322724,
			"target":34962
		},
		{
			"buffer":0,
			"byteLength":13788,
			"byteOffset":7374108,
			"target":34963
		},
		{
			"buffer":0,
			"byteLength":14844,
			"byteOffset":7387896,
			"target":34962
		},
		{
			"buffer":0,
			"byteLength":14844,
			"byteOffset":7402740,
			"target":34962
		},
		{
			"buffer":0,
			"byteLength":3960,
			"byteOffset":7417584,
			"target":34963
		},
		{
			"buffer":0,
			"byteLength":4090152,
			"byteOffset":7421544,
			"target":34962
		},
		{
			"buffer":0,
			"byteLength":4090152,
			"byteOffset":11511696,
			"target":34962
		},
		{
			"buffer":0,
			"byteLength":1466088,
			"byteOffset":15601848,
			"target":34963
		},
		{
			"buffer":0,
			"byteLength":540324,
			"byteOffset":17067936,
			"target":34962
		},
		{
			"buffer":0,
			"byteLength":540324,
			"byteOffset":17608260,
			"target":34962
		},
		{
			"buffer":0,
			"byteLength":98880,
			"byteOffset":18148584,
			"target":34963
		},
		{
			"buffer":0,
			"byteLength":259272,
			"byteOffset":18247464,
			"target":34962
		},
		{
			"buffer":0,
			"byteLength":259272,
			"byteOffset":18506736,
			"target":34962
		},
		{
			"buffer":0,
			"byteLength":53196,
			"byteOffset":18766008,
			"target":34963
		},
		{
			"buffer":0,
			"byteLength":291708,
			"byteOffset":18819204,
			"target":34962
		},
		{
			"buffer":0,
			"byteLength":291708,
			"byteOffset":19110912,
			"target":34962
		},
		{
			"buffer":0,
			"byteLength":71088,
			"byteOffset":19402620,
			"target":34963
		},
		{
			"buffer":0,
			"byteLength":2304,
			"byteOffset":19473708,
			"target":34962
		},
		{
			"buffer":0,
			"byteLength":2304,
			"byteOffset":19476012,
			"target":34962
		},
		{
			"buffer":0,
			"byteLength":744,
			"byteOffset":19478316,
			"target":34963
		},
		{
			"buffer":0,
			"byteLength":2304,
			"byteOffset":19479060,
			"target":34962
		},
		{
			"buffer":0,
			"byteLength":2304,
			"byteOffset":19481364,
			"target":34962
		},
		{
			"buffer":0,
			"byteLength":879648,
			"byteOffset":19483668,
			"target":34962
		},
		{
			"buffer":0,
			"byteLength":879648,
			"byteOffset":20363316,
			"target":34962
		},
		{
			"buffer":0,
			"byteLength":335400,
			"byteOffset":21242964,
			"target":34963
		},
		{
			"buffer":0,
			"byteLength":858408,
			"byteOffset":21578364,
			"target":34962
		},
		{
			"buffer":0,
			"byteLength":858408,
			"byteOffset":22436772,
			"target":34962
		},
		{
			"buffer":0,
			"byteLength":324408,
			"byteOffset":23295180,
			"target":34963
		},
		{
			"buffer":0,
			"byteLength":547404,
			"byteOffset":23619588,
			"target":34962
		},
		{
			"buffer":0,
			"byteLength":547404,
			"byteOffset":24166992,
			"target":34962
		},
		{
			"buffer":0,
			"byteLength":100392,
			"byteOffset":24714396,
			"target":34963
		},
		{
			"buffer":0,
			"byteLength":1231680,
			"byteOffset":24814788,
			"target":34962
		},
		{
			"buffer":0,
			"byteLength":1231680,
			"byteOffset":26046468,
			"target":34962
		},
		{
			"buffer":0,
			"byteLength":453648,
			"byteOffset":27278148,
			"target":34963
		},
		{
			"buffer":0,
			"byteLength":884172,
			"byteOffset":27731796,
			"target":34962
		},
		{
			"buffer":0,
			"byteLength":884172,
			"byteOffset":28615968,
			"target":34962
		},
		{
			"buffer":0,
			"byteLength":330912,
			"byteOffset":29500140,
			"target":34963
		},
		{
			"buffer":0,
			"byteLength":2304,
			"byteOffset":29831052,
			"target":34962
		},
		{
			"buffer":0,
			"byteLength":2304,
			"byteOffset":29833356,
			"target":34962
		},
		{
			"buffer":0,
			"byteLength":2606616,
			"byteOffset":29835660,
			"target":34962
		},
		{
			"buffer":0,
			"byteLength":2606616,
			"byteOffset":32442276,
			"target":34962
		},
		{
			"buffer":0,
			"byteLength":1068240,
			"byteOffset":35048892,
			"target":34963
		},
		{
			"buffer":0,
			"byteLength":1666572,
			"byteOffset":36117132,
			"target":34962
		},
		{
			"buffer":0,
			"byteLength":1666572,
			"byteOffset":37783704,
			"target":34962
		},
		{
			"buffer":0,
			"byteLength":635256,
			"byteOffset":39450276,
			"target":34963
		},
		{
			"buffer":0,
			"byteLength":1665936,
			"byteOffset":40085532,
			"target":34962
		},
		{
			"buffer":0,
			"byteLength":1665936,
			"byteOffset":41751468,
			"target":34962
		},
		{
			"buffer":0,
			"byteLength":635256,
			"byteOffset":43417404,
			"target":34963
		},
		{
			"buffer":0,
			"byteLength":89004,
			"byteOffset":44052660,
			"target":34962
		},
		{
			"buffer":0,
			"byteLength":89004,
			"byteOffset":44141664,
			"target":34962
		},
		{
			"buffer":0,
			"byteLength":25884,
			"byteOffset":44230668,
			"target":34963
		},
		{
			"buffer":0,
			"byteLength":960,
			"byteOffset":44256552
		}
	],
	"buffers":[
		{
			"byteLength":44257512,
			"uri":"robotarm.bin"
		}
	]
}
